<?xml version="1.0" encoding="utf-8"?>
<!-- Generator: Adobe Illustrator 24.0.3, SVG Export Plug-In . SVG Version: 6.00 Build 0)  -->
<svg version="1.1" id="Layer_1" xmlns="http://www.w3.org/2000/svg" xmlns:xlink="http://www.w3.org/1999/xlink" x="0px" y="0px"
	 viewBox="0 0 220 390" style="enable-background:new 0 0 220 390;" xml:space="preserve">
<style type="text/css">
	.st0{fill:#FFD7AA;}
	.st1{opacity:0.24;fill:none;stroke:#000000;stroke-miterlimit:10;enable-background:new    ;}
	.st2{opacity:0.24;fill:none;stroke:#231F20;stroke-miterlimit:10;enable-background:new    ;}
	.st3{opacity:0.24;fill:none;stroke:#231F20;stroke-width:2;stroke-miterlimit:10;enable-background:new    ;}
	.st4{opacity:0.24;fill:none;stroke:#231F20;stroke-width:0.25;stroke-miterlimit:10;enable-background:new    ;}
	.st5{opacity:0.24;fill:none;stroke:#231F20;stroke-width:0.5;stroke-miterlimit:10;enable-background:new    ;}
	.st6{opacity:0.24;fill:none;stroke:#231F00;stroke-width:0.25;stroke-miterlimit:10;enable-background:new    ;}
	.st7{opacity:0.24;fill:none;stroke:#231F20;stroke-width:0.75;stroke-miterlimit:10;enable-background:new    ;}
	.st8{opacity:0.36;}
</style>
<rect x="-5.6" y="-2.7" class="st0" width="232.5" height="397.1"/>
<g>
	<path class="st1" d="M-15.2,215.5c11.3,4.2,18.3,7.3,30.6,4.7c26.4-5.4,50-22.2,77.6-22c9.3,0.1,18.9,2.2,27.7-0.6
		c6.3-2,11.5-6.4,16.6-10.6c12.4-10.3,24.8-20.7,37.2-31c6.3-5.2,13-11.1,14.9-19.1c1.8-7.6-1-15.7,1.2-23.1c1.1-3.7,3.4-7,5.6-10.2
		c20.6-31,29-70,23-106.7c-2.3-14.3-6.8-28.3-7.6-42.8c-1.1-19.1,3.9-39.7-5.3-56.5c-5.3-9.6-14.4-16.4-21.3-24.8
		c-9.4-11.5-14.7-26.3-25.9-36c-8.6-7.5-19.7-11.2-30.5-14.7c-63.9-20.3-134.1-36-197-12.7c-7.3,2.7-14.5,6-21,10.2
		c-7,4.5-13.2,10.2-19.4,15.8c-8.3,7.5-16.6,15.1-24.9,22.6c-10.8,9.9-21.9,20-29.1,32.8c-15.6,27.8-10.3,62.1-16,93.4
		c-3.3,18-10.3,35.2-15,52.9c-2.6,9.9-4.4,20.5-0.8,30.1s14.5,17,24.1,13.5c12.8,47,42.1,91.8,86.6,111.5c7.6,3.3,15.6,5.9,23.5,8.5
		C-45.2,205.6-29.8,210-15.2,215.5z"/>
	<path class="st2" d="M-40.3-39.4c-1.2,5-7,21.4-8.1,26.4c-2.8,13.2,4.5,19.2,5.7,32.7c1.3,15.8,5.4,31.6,15.5,43.5
		c9.8,12.3,26,19.9,41.2,16.3c9.1-2,16.9-7.7,24.3-13.3c9-6.5,17.8-13.3,26.8-19.8c5.3-4,10.6-8,14.6-13.3C88.7,21.2,89,4.5,83-9.3
		c-6.1-13.8-17.1-24.6-29-33.3C42.3-50.8,29.3-58,15.4-58.9C-3.8-60.2-31.6-56.4-40.3-39.4"/>
	<path class="st3" d="M-30.7,29.5c4.6,12.6,12.3,25.6,25.2,29.3c10.7,3.2,22.2-0.2,32.7-4.2c6.8-2.5,13.4-5.4,19-10.2
		c4.5-3.8,7.7-8.9,11-13.9c4.9-7.8,10.2-16.3,10.2-25.6c0-8.2-4.1-16-9.8-22c-5.9-6-12.8-10.2-19.8-14.7C27.4-38,16.7-44.8,4.5-45.7
		c-6.4-0.5-12.3,0.6-18.3,1.5c-4.8,0.6-9.5,1.7-13.5,4.2C-46-27.8-37,13.1-30.7,29.5z"/>
	<path class="st4" d="M-28.6-15.4c-1.1,12.6,2.8,28.8,7,40.3c1.5,4.5,3.5,8.6,6.8,12.2c2.5,2.5,5.7,4.7,9,6.2
		c15.5,7.6,35.9,1.9,46-12.3s7.7-35.6-4.5-47.5c-3.8-3.7-8.9-6.8-13.9-9.3C14.4-29.5,6-32-2.2-31.5C-13-30.7-27.6-27.9-28.6-15.4z"
		/>
	<path class="st5" d="M-17.7-11.2C-21.1,1-14.1,25.6-1.9,31.2c5.2,2.2,11.3,1.7,17,0.5c2.6-0.5,4.8-1.3,6.8-2.8
		c2.7-2.2,4.2-5.4,5-8.7c2.6-9.5,1.4-20-4.2-28.2C15.5-19.3-12-30.3-17.7-11.2z"/>
	<path class="st6" d="M-4.2,1.9c0.2,5.3,1.3,10.7,5,14.6s10.9,4.5,13.8,0.3c1.4-2.2,1.7-5.4,0.9-8.2C13.8,1.9,6.8-4.1,0-2.1
		c-2.1,0.7-3.8,1.9-5,3.6"/>
	<path class="st5" d="M-50.5,1.3c0.6,12.4,2.8,24.9,6.8,36.7c1.4,4.9,3.4,9.7,6.2,13.9c5.2,8,13.4,13.7,21.5,18.7
		c11.4,7.3,24.6,14,37.9,11.5c6.2-1.3,11.9-4.4,17.5-7.3c7.2-3.9,14.1-7.6,21.1-11.3c9.4-5.3,19.2-10.8,25.2-19.5
		c2.7-3.6,4.1-7.8,5.6-11.8c3.1-8.4,5.7-16.9,6-25.6c0.2-8.5-1.8-17.4-6-24.8c-5.2-9.3-13.1-16.5-21.2-23.5
		c-1.9-1.5-3.9-3.3-5.6-4.8c-3.1-2.4-6-5.2-9.3-7.7c-18-14.1-41.5-19.9-64-17c-11.7,1.6-23,5.8-31.7,13.5
		C-58.7-41.4-51-19.9-50.5,1.3z"/>
	<path class="st4" d="M-70.1,20.9c0.2,3.7,0.5,7.1,1.7,10.7c1.7,4.8,4.9,8.8,8.2,12.5C-48.4,57.9-36.5,72-24.6,85.3
		c3.4,4,7,8.4,11.5,11.3c5.7,4.1,12.4,5.8,19.2,7c6.5,1.1,13.3,1.7,19.8,0.8c14.5-2.1,26.8-11.9,40.7-16.7
		c9.3-3.1,19.1-3.9,27.6-8.7c14.7-8.2,21.4-25.7,22.9-42.4c2.5-29-8.5-58.2-26.5-81C74.7-64.5,52.8-80.3,27.9-86.8
		c-10.6-2.6-21.4-3.7-32.1-2.9c-3.6,0.3-6.8,0.7-10.1,1.2c-11.3,2-22.6,6.4-31.3,13.8C-72.8-51.9-72-11.2-70.1,20.9z"/>
	<path class="st2" d="M-70-65.9c-2.4,8.2-2.1,16.3-2.9,24.5c-1.2,13-4.2,25.9-6.5,38.6c-1.4,8.4-3,17-0.5,25.1
		c2,6.9,6.8,12.7,11.3,18.4c8.2,10.6,16.3,22.7,15.5,36.2c-0.3,2.9-0.8,6.2,1.2,8.5c0.9,1.4,2.7,1.8,4.2,2.3
		c9,2.6,18.2,5.4,25.9,9.9c6,3.3,11.6,7.8,17.8,10.7c8.5,4.2,18.3,5.5,27.7,7c7,1,13.8,2,20.8,1.5C57.3,115.7,69.2,110,81,105
		c11-4.7,22.7-9,32.1-16c9.6-6.9,17.5-17.5,18.3-29.4c0.4-9.7-3.6-19-7.3-28c-7.7-18.3-14-37.2-19-56.2c-3.9-15.4-8.2-32.5-21.7-41
		c-2.8-1.7-6-3-8.5-5c-3.4-2.8-5.8-6.8-8.7-10.1c-5.9-6.9-14.7-10.9-22.9-14.6c-14-6.2-28.5-12.4-43.7-12.7
		c-7.7-0.3-15.5,1.3-22.9,3.3C-45.3-100.7-63.8-88-70-65.9z"/>
	<path class="st4" d="M-83.9-73.4c-1.2,8.4-2.5,17.1-1.7,25.6c0.9,15.5,0.5,30.8,0,46.3c-0.4,9.6-0.7,19.3,2.9,28
		c2.9,7.3,8.5,13,13,19.8s8.2,14.6,7,22.3c-0.6,3-1.8,6.1-2.3,9c-1.3,9.3,5.4,17.8,12.2,24c31.4,29.3,75.8,42.1,118.9,39.8
		c10.5-0.5,21.1-2,30.5-6.5c7.4-3.7,14.3-9.1,22-11.9c1.4-0.5,3-1.1,4.2-2c1.1-0.9,1.8-2.5,2.3-3.7c3.4-8.2,6.6-16.3,10.2-24.5
		c2-4.5,3.9-9,4.8-13.8c1.2-6.5,0.6-13.3-0.3-19.8c-2-13.9-6.5-27.4-10.7-40.7c-4.6-14.3-9.1-28.9-13.9-43.1
		c-4.8-14.3-9.3-28.5-15.5-42c-1.7-4.2-4.1-8.3-7-11.9c-3.6-4.3-8.2-7.6-13-10.5c-9.3-6.2-18.4-12.5-27.7-18.7
		c-10.2-6.8-20.1-13.5-31.4-18.3c-25.7-10.8-55.9-9.1-80.2,4.2c-5.3,2.8-10.2,6.2-13.5,11c-2.8,4-4.4,8.5-5.6,13.3
		C-78.7-89.7-82.7-80.9-83.9-73.4z"/>
	<path class="st7" d="M-96.3-46.9C-98.5-35-91.1-26-94.8-14.2c-2,6.5-5.4,13-5.7,20c-0.1,10.2,6.4,19.1,10.1,28.5
		c3.9,9.5,4.8,20,6.2,29.9c2.4,16.2,6.8,32,12.5,47.5c0.5,1.6,1.3,3.3,2.5,4.5c1.1,1.1,2.5,1.5,4,2c23.8,9,45.4,24.8,70.3,28.8
		c18.2,2.8,36.8-0.8,54-7.3c17.4-6.6,33-16.2,48.8-25.6c4.8-2.8,9.7-6,13.3-10.5c2.5-3.2,4.1-7.3,5.3-11.3
		c6.7-19.2,12.7-38.4,18-58.2c1.6-6.2,3.3-12.7,3.3-19.2c0-6.4-1.4-12.3-2.9-18.3c-3.4-14.1-6.9-28.3-13.9-41
		c-4.2-7.4-9.5-14.7-11.5-22.9c-1-3.8-1-8.2-2.5-11.9c-1.4-4.2-4.6-7.7-8.2-11c-8.5-7.9-19-14-30-18c-9.3-3.2-19-4.8-28.8-6.5
		c-3-0.6-6.1-1-9-1.5c-2.4-0.4-4.9-0.7-7.4-1.2c-24.2-4.2-50-7.9-72.5,1.5c-15.7,6.8-28.1,19.2-38.6,32.5
		C-85.8-73-93.7-60.8-96.3-46.9z"/>
	<path class="st3" d="M-101.6-80.2c-4.5,9.7-6.9,20.1-8.1,30.8c-1.2,12,4,27.7-3.7,38.2c-1.4,2.3-3.4,4-4.2,6.5
		c-1,3.6,0.8,6.8,2.3,10.1c6.1,13,9.3,27.4,9,42c-0.3,7.2-0.9,14.1,0,21.1c3.7,24,28.3,39.5,34.5,62.7c0.3,1.2,0.6,2.8,1.5,3.7
		c1.5,1.7,4.2,1.7,6.5,1.7c9,0.4,17.1,5.7,24.8,10.2c36.3,20.1,81.9,21.7,120.5,6.2c16.4-6.5,31.7-15.9,46.9-25.2
		c6.5-4.1,13.2-8.4,18-14.6c2.8-3.7,4.8-8,6.5-12.2c5.7-13.3,11.6-26.9,13.9-41.5c3.5-23.8-2.8-47.5-9.8-70.3
		c-11.6-38.9-26.5-79.6-57.9-105.3c-10.6-8.8-22.9-15.5-36.2-19.5c-6.6-2-13.9-3.4-21.2-2.9c-10.5,0.8-20.3,5.9-30.8,5.6
		c-8.7-0.3-17-4.1-25.7-5.6c-12.2-1.9-25,1.2-36.5,6.8C-73.7-121.2-91.7-102.3-101.6-80.2z"/>
	<path class="st4" d="M-120.9-83.7c-6.6,19.4-0.6,40.6-7.4,59.8c-1.7,5.3-4.7,10.2-6.2,15.8c-2.5,8.9-1.7,18.3-0.8,27.3
		c2.7,27.2,5.9,54.6,16,80.2c10,25.5,28.4,48.7,54,58.8c7.7,3,15.6,4.7,23.5,7c13.5,4,26.5,10,40.3,12.5c21.5,3.7,43.8-1.6,65-7.3
		c11.3-3,23.2-6.5,30.5-15.5c5.3-6.5,7.6-15.1,11.3-22.5c5.1-10,12.5-18.8,17-29c10.9-25,0.8-54.5,8.1-80.7c2.8-10,7.8-18.9,9.8-29
		c1.3-6.7,1.1-13.2,0.8-20c-1.2-20.4-3.9-41.5-11.3-60.7c-4.1-11-9.8-21.2-16.6-30.5c-3.3-4.4-6.8-8.8-11-12.5
		c-4-3.6-8.5-6.5-13-9.3c-9-5.8-18.3-11.6-28.8-13.9c-17.5-3.6-35.2,3.2-53,2.9c-11-0.1-21.5-2.9-32.2-2.9c-18.4,0-35.9,8-50.6,19
		C-91.1-122.4-114-102.9-120.9-83.7z"/>
	<path class="st4" d="M-5,24.4c3.9,4.4,9.5,7.7,15.2,7.7c2.4,0,4.9-0.7,7.4-1.5c3.4-1.1,6.9-2.5,9.4-5.3c3.4-3.7,4.5-9.4,4.2-14.7
		c-0.3-7.5-2-14.8-6.5-20.8C20.6-16.3,13.3-20.3,6-20c-2.2,0-4.2,0.4-6.2,0.9c-3,0.8-5.8,1.2-8.7,2c-0.5,0.3-1.2,0.3-1.7,0.8
		c-0.7,0.6-0.9,1.5-1.2,2.3C-15.5,0.3-14.6,13.3-5,24.4z"/>
	<path class="st5" d="M-6,1.2c0.1,3.4,6,11.9,10.2,10.2C10.5,8.8,4-2.8-2,4.6c-4.3,5.2,0.8,15.1,5,18.7c3.5,3,8.3,3.7,12.5,2.5
		s7.8-5.1,8.7-9.3c0.8-2.1,0.8-4.9,0.5-7.4c-0.3-6.8-1.6-14.6-7.3-18.3C13.6-11.7,8-11.4,3.5-9.7C-1.6-8-6.5-4.7-6,1.2z"/>
	<path class="st5" d="M-37.6-12.6c-2.3,14.1-4.8,28.4-2,42.3c2.5,14.1,11.3,27.9,24.8,32.1C-9,63.6-3,63.6,2.9,63.3
		c14.2-1.6,28.5-6.8,38.7-16.6C51.8,37,57.9,21.9,55.4,8c-1.8-10.1-7.6-19.1-13.3-27.6C37.2-27,31.6-35,23.4-38.3
		c-5.2-2.3-11-2.3-16.7-2.3c-5.3,0-10.7,0-16,1.2C-22.8-36.4-35-26.2-37.6-12.6z"/>
	<path class="st7" d="M14.5-82.4c-23.9-1.5-54.1,7.8-67.1,29.3C-67.7-27.7-68.5,8-58.3,35.3c8.2,21.8,24.3,41,45.1,50.6
		c5.9,2.8,11.9,4.8,18.4,4.8c6.4,0.3,12.3-1.8,18.3-3.3c14.1-3.7,28.3-6.3,41.8-11.9c13.3-5.6,26-14.6,32.5-27.6
		c5.1-9.9,6.1-21.2,5.6-32.2c-1.6-32.2-17.2-64.4-44-82.7C46.3-75.9,30.5-81.2,14.5-82.4z"/>
	<path class="st5" d="M-139.7-44.7c-2.5,24.6,11.8,44.6,17.5,68.3c6,24.3,11.1,48.7,16.7,73.2c3.9,16.2,7.9,33.6,19.4,45.8
		c7.4,8.5,18,13.9,28.2,18.7c10.7,5.2,21.7,9.7,32.7,13.9c19,7,38.7,13,59,11.8c17.9-1.2,35.4-7.9,50.9-17.2
		c6.5-4,12.7-8.2,18.7-12.7c16.9-13,32.3-29.1,40.4-48.9c5.9-14.3,7.6-30.2,14.6-44c2.3-4.6,5.6-9.4,6.8-14.7c1.3-4.8,0.8-10,0.5-15
		c-1-16.2-2.4-32.6-3.3-49.2c-1.1-17-2.5-35-13-48.3c-6.8-8.7-17.5-15.2-19.8-26.2c-0.7-3.8-0.3-8.2-1.5-11.9
		c-1.2-3.8-3.7-6.9-6.5-9.8c-37.1-40-95.7-59-149.4-48.5c-32,6.5-62.2,23.1-83.3,48C-126.7-92.5-137.1-68.7-139.7-44.7z"/>
	<path class="st4" d="M-129.3-69.4c3.9-22.8,21.1-46.3,35.3-63.8c9.7-11.9,20.7-22.7,31.4-33.4c1.8-2,3.7-3.9,6-4.8
		c3.6-1.6,7.6-1.1,11.3-0.8c14.2,1.1,28.8,0,42.7-2.9c12.6-2.6,24.8-7.1,37.5-7.4c11-0.1,22,2.7,32.7,5.6c16.3,4.3,32.5,8.8,48.8,13
		c5.7,1.7,11.7,3.2,17,6.5c6.9,4.2,11.8,11,16.3,17.5c8.5,11.9,16.7,24.2,24.8,36.7c6,9,11.7,18.3,15,28.8
		c4.1,12.5,4.1,25.7,3.6,38.7c-1.6,35-6.2,70-16.6,103.4c-10.2,32.6-25.7,63.5-45.7,91.1c-2.4,3.1-4.8,6.4-8.1,8.7
		c-2.5,1.7-5.3,3.1-8.2,4c-27.3,10.5-56.1,18.1-85.5,19c-29.5,1-59.2-4.8-84.9-19c-9-4.9-17.4-11-26.8-15c-6.7-3-13.8-4.7-20-8.7
		c-9.7-6.1-15.6-16.7-21.2-26.9c-5.7-10.7-11.4-21.5-15-33c-7.7-25.9-4-53.3,0-80.1C-135.2-17.7-132.7-43.7-129.3-69.4z"/>
	<path class="st7" d="M-132.6-86c-5.3,22.9-14.1,45.2-15.8,69.2c-1.4,18.4,1.3,37.1-2.3,55.4c-1.2,6.2-3.2,12.7-2,19.2
		c1.9,9.3,10.1,16.3,11.3,25.6c0.8,4.3-0.1,9.1,0.8,13.3c0.8,3.7,3,6.9,5.3,10.2c14.2,19.7,31.3,37.2,48.3,54.7
		c6.8,6.6,13.5,13.6,22,18.4c9.5,5.3,20.3,7.3,31,9.3c29.2,5.1,58.4,9.6,88,9.9c22.7,0.3,46.8-2.2,65.8-14.7
		c19.8-13,31.7-35,41-56.7c8.7-20.7,16-42.5,18-65c1.2-13.5,0.5-26.9-0.3-40.4c-1.5-28.8-3.2-57.9-12.2-85.5
		c-4.8-14.7-11.8-28.8-19.5-42.3c-8.7-15-18.8-29.7-33-39.8c-12.7-8.9-28-14.1-43.5-17c-20.3-4-41.1-5.1-61.5-4.8
		c-12.9,0-25.9,0.5-38.6,2.8c-24,4.3-47.2,14.2-66.7,28.8C-112.8-123.2-127.5-106.4-132.6-86z"/>
	<path class="st4" d="M-17.6,44.5c8.5,5.8,19.2,6.7,29.3,5c4-0.6,7.7-1.9,11-4.2c2.4-1.7,4.3-4,6-6.5C34.4,31,39.1,22.1,40,12.3
		c1.3-11.8-3.5-24.4-12.5-32.1c-8.9-7.8-22.1-10.7-33.4-7S-26.5-12.9-28.2-1.1C-30.5,13.7-32.1,34.5-17.6,44.5z"/>
	<path class="st4" d="M-149.6-44.8c-2.5,29.7-5.3,60.7-4.8,90.4c0.4,28.2,6.2,57.4,23.2,80.2c4.5,6,10.1,11.8,14.6,17.8
		c4.9,6.9,9.1,14.3,14.7,21.1c12.4,15.1,30.2,25.4,48.9,31.1s38.4,7.8,57.9,9.3c14.2,1.1,28.5,1.8,42.7,2.3
		c10.6,0.5,21.6,0.5,31.4-3.7c3.5-1.4,6.9-3.5,10.5-5c5-2.1,10.2-2.4,15.5-3.3c43.3-7.6,78.3-49.7,77.4-94c0-5.6-0.6-11,0.3-16.3
		c0.9-6,3.7-11.3,5.7-17c10.1-27.7,3.6-58.2-2.9-87c-5.9-26.3-11.8-52.3-17.8-78.5c-1-4.4-2.1-8.9-5-12.5c-3-3.6-7.5-5.3-11.5-7.3
		c-8.6-4.5-15.8-10.7-22.8-17.2c-9.8-9-19.5-17.8-29.3-26.5c-9.1-8.2-18.7-16.7-30.2-21.5c-15.1-6.5-32.3-5.7-48.9-4.8
		c-18.2,1.1-36.5,2.3-54,6.8c-32.5,8.3-62,27.2-82.8,53.7C-135.2-103.5-146.5-74.7-149.6-44.8z"/>
	<path class="st5" d="M-43.9,12.7c-2,15.5,4.5,30.1,11.8,43.1c2.1,3.9,4.5,7.9,8.1,10.7c3.2,2.5,7.3,3.9,11.3,4.8
		c15.9,3.4,32.9-0.2,47.2-8.3s25.7-20.3,34.7-34.1c4.5-6.8,8.6-14.6,8.1-22.8c-0.6-6.5-3.5-11.9-6.8-17.5
		c-10.2-17.5-23.3-35-42.3-42c-11-4.1-23.4-4.1-34.7-1.2c-13.4,3.5-26.1,11.8-32.1,24.3C-44.8-16.8-42-1.1-43.9,12.7z"/>
	<path class="st2" d="M-162.1-1.3c-1.2,12.5-1.6,22.8,1.7,35.3c4,16.6,4.2,33.3,8.2,50c5.6,22.3,20.8,40.7,35.8,58.4
		c9.1,10.7,18.4,21.2,29.4,29.4c15.8,11.6,34.5,18.7,53.1,25.4c37.9,14.1,77.3,28,117.7,28c9.4,0,19-1.1,27.7-4.8
		c21.7-9.7,32.7-35.9,54.7-45.2c4.1-1.7,8.2-2.9,11.5-5.7c3.3-2.6,4.7-6.7,6.2-10.7c27.7-74.2,29.2-157.9,4-233.2
		c-2.7-7-5.3-14.3-10.1-20c-2.1-3-5.4-5.4-7.4-8.7c-2.2-3.4-3.4-7.7-4.2-11.9c-3.7-18.8-2.8-39.4-11.8-56.1
		c-9.3-17-27.3-27.6-45.1-35c-15.1-6.5-30.9-11.8-47.2-15.5c-11.5-2.8-23.2-4.8-34.7-2.3c-7,1.5-13.5,4.8-20,7.7
		c-15.2,7.1-30.5,14.4-45.7,21.7c-13.1,6.4-26.8,12.6-38.7,21.1c-27.7,19.2-47.2,48.2-61.9,78.7C-153.8-64-159.2-34.7-162.1-1.3z"/>
</g>
<g class="st8">
	<path class="st1" d="M136.9,440.1c11.3,4.2,18.3,7.3,30.6,4.7c26.4-5.4,50-22.2,77.6-22c9.3,0.1,18.9,2.2,27.7-0.6
		c6.3-2,11.5-6.4,16.6-10.6c12.4-10.3,24.8-20.7,37.2-31c6.3-5.2,13-11.1,14.9-19.1c1.8-7.6-1-15.7,1.2-23.1c1.1-3.7,3.4-7,5.6-10.2
		c20.6-31,29-70,23-106.7c-2.3-14.3-6.8-28.3-7.6-42.8c-1.1-19.1,3.9-39.7-5.3-56.5c-5.3-9.6-14.4-16.4-21.3-24.8
		c-9.4-11.5-14.7-26.3-25.9-36c-8.6-7.5-19.7-11.2-30.5-14.7c-63.9-20.3-134.1-36-197-12.7c-7.3,2.7-14.5,6-21,10.2
		c-7,4.5-13.2,10.2-19.4,15.8C35,67.5,26.7,75.1,18.4,82.6c-10.8,9.9-21.9,20-29.1,32.8c-15.6,27.8-10.3,62.1-16,93.4
		c-3.3,18-10.3,35.2-15,52.9c-2.6,9.9-4.4,20.6-0.8,30.1c3.6,9.6,14.5,17,24.1,13.5c12.7,46.9,42,91.8,86.6,111.5
		c7.6,3.3,15.6,5.9,23.5,8.5C106.8,430.2,122.2,434.6,136.9,440.1z"/>
	<path class="st2" d="M111.7,185.2c-1.2,5-7,21.4-8.1,26.4c-2.8,13.2,4.5,19.2,5.7,32.7c1.3,15.8,5.4,31.6,15.5,43.5
		c9.8,12.3,26,19.9,41.2,16.3c9.1-2,16.9-7.7,24.3-13.3c9-6.5,17.8-13.3,26.8-19.8c5.3-4,10.6-8,14.6-13.3c9-11.9,9.3-28.6,3.3-42.4
		c-6.1-13.8-17.1-24.6-29-33.3c-11.7-8.2-24.7-15.4-38.6-16.3C148.2,164.4,120.4,168.2,111.7,185.2"/>
	<path class="st3" d="M121.3,254.1c4.6,12.6,12.3,25.6,25.2,29.3c10.7,3.2,22.2-0.2,32.7-4.2c6.8-2.5,13.4-5.4,19-10.2
		c4.5-3.8,7.7-8.9,11-13.9c4.9-7.8,10.2-16.3,10.2-25.6c0-8.2-4.1-16-9.8-22c-5.9-6-12.8-10.2-19.8-14.7
		c-10.4-6.2-21.1-13-33.3-13.9c-6.4-0.5-12.3,0.6-18.3,1.5c-4.8,0.6-9.5,1.7-13.5,4.2C106,196.8,115,237.7,121.3,254.1z"/>
	<path class="st4" d="M123.4,209.1c-1.1,12.6,2.8,28.8,7,40.3c1.5,4.5,3.5,8.6,6.8,12.2c2.5,2.5,5.7,4.7,9,6.2
		c15.5,7.6,35.9,2,46-12.2c10.1-14.2,7.7-35.6-4.5-47.5c-3.8-3.7-8.9-6.8-13.9-9.3c-7.4-3.7-15.8-6.2-24-5.7
		C139,193.9,124.4,196.7,123.4,209.1z"/>
	<path class="st5" d="M134.3,213.4c-3.4,12.2,3.6,36.8,15.8,42.4c5.2,2.2,11.3,1.7,17,0.5c2.6-0.5,4.8-1.3,6.8-2.8
		c2.7-2.2,4.2-5.4,5-8.7c2.6-9.5,1.4-20-4.2-28.2C167.5,205.3,140.1,194.3,134.3,213.4z"/>
	<path class="st6" d="M147.8,226.5c0.2,5.3,1.3,10.7,5,14.6c3.7,3.9,10.9,4.5,13.8,0.3c1.4-2.2,1.7-5.4,0.9-8.2
		c-1.7-6.7-8.7-12.7-15.5-10.7c-2.1,0.7-3.8,1.9-5,3.6"/>
	<path class="st5" d="M101.6,225.9c0.6,12.4,2.8,24.9,6.8,36.7c1.4,4.9,3.4,9.7,6.2,13.9c5.2,8,13.4,13.7,21.5,18.7
		c11.4,7.3,24.6,14,37.9,11.5c6.2-1.3,11.9-4.4,17.5-7.3c7.2-3.9,14.1-7.6,21.1-11.3c9.4-5.3,19.2-10.8,25.2-19.5
		c2.7-3.6,4.1-7.8,5.6-11.8c3.1-8.4,5.7-16.9,6-25.6c0.2-8.5-1.8-17.4-6-24.8c-5.2-9.3-13.1-16.5-21.2-23.5
		c-1.9-1.5-3.9-3.3-5.6-4.8c-3.1-2.4-6-5.2-9.3-7.7c-18-14.1-41.5-19.9-64-17c-11.7,1.6-23,5.8-31.7,13.5
		C93.3,183.2,101,204.7,101.6,225.9z"/>
	<path class="st4" d="M82,245.5c0.2,3.7,0.5,7.1,1.7,10.7c1.7,4.8,4.9,8.8,8.2,12.5c11.8,13.8,23.7,27.9,35.6,41.2
		c3.4,4,7,8.4,11.5,11.3c5.7,4.1,12.4,5.8,19.2,7c6.5,1.1,13.3,1.7,19.8,0.8c14.5-2.1,26.8-11.9,40.7-16.7
		c9.3-3.1,19.1-3.9,27.6-8.7c14.7-8.2,21.4-25.7,22.9-42.4c2.5-29-8.5-58.2-26.5-81c-15.9-20.1-37.8-35.9-62.7-42.4
		c-10.6-2.6-21.4-3.7-32.1-2.9c-3.6,0.3-6.8,0.7-10.1,1.2c-11.3,2-22.6,6.4-31.3,13.8C79.2,172.7,80,213.4,82,245.5z"/>
	<path class="st2" d="M82.1,158.7c-2.4,8.2-2.1,16.3-2.9,24.5c-1.2,13-4.2,25.9-6.5,38.6c-1.4,8.4-3,17-0.5,25.1
		c2,6.9,6.8,12.7,11.3,18.4c8.2,10.6,16.3,22.7,15.5,36.2c-0.3,2.9-0.8,6.2,1.2,8.5c0.9,1.4,2.7,1.8,4.2,2.3
		c9,2.6,18.2,5.4,25.9,9.9c6,3.3,11.6,7.8,17.8,10.7c8.5,4.2,18.3,5.5,27.7,7c7,1,13.8,2,20.8,1.5c12.8-1.1,24.7-6.8,36.5-11.8
		c11-4.7,22.7-9,32.1-16c9.6-6.9,17.5-17.5,18.3-29.4c0.4-9.7-3.6-19-7.3-28c-7.7-18.3-14-37.2-19-56.2c-3.9-15.4-8.2-32.5-21.7-41
		c-2.8-1.7-6-3-8.5-5c-3.4-2.8-5.8-6.8-8.7-10.1c-5.9-6.9-14.7-10.9-22.9-14.6c-14-6.2-28.5-12.4-43.7-12.7
		c-7.7-0.3-15.5,1.3-22.9,3.3C106.8,123.9,88.2,136.6,82.1,158.7z"/>
	<path class="st4" d="M68.1,151.2c-1.2,8.4-2.5,17.1-1.7,25.6c0.9,15.5,0.5,30.8,0,46.3c-0.4,9.6-0.7,19.3,2.9,28
		c2.9,7.3,8.5,13,13,19.8s8.2,14.6,7,22.3c-0.6,3-1.8,6.1-2.3,9c-1.3,9.3,5.4,17.8,12.2,24c31.4,29.3,75.8,42.1,118.9,39.8
		c10.5-0.5,21.1-2,30.5-6.5c7.4-3.7,14.3-9.1,22-11.9c1.4-0.5,3-1.1,4.2-2c1.1-0.9,1.8-2.5,2.3-3.7c3.4-8.2,6.6-16.3,10.2-24.5
		c2-4.5,3.9-9,4.8-13.8c1.2-6.5,0.6-13.3-0.3-19.8c-2-13.9-6.5-27.4-10.7-40.7c-4.6-14.3-9.1-28.8-13.9-43.1s-9.3-28.5-15.5-42
		c-1.7-4.2-4.1-8.3-7-11.9c-3.6-4.3-8.2-7.6-13-10.5c-9.3-6.2-18.4-12.5-27.7-18.7c-10.2-6.8-20.1-13.5-31.4-18.3
		c-25.7-10.8-55.9-9.1-80.2,4.2c-5.3,2.8-10.2,6.2-13.5,11c-2.8,4-4.4,8.5-5.6,13.3C73.3,134.9,69.3,143.7,68.1,151.2z"/>
	<path class="st7" d="M55.7,177.7c-2.2,11.9,5.2,20.9,1.5,32.7c-2,6.5-5.4,13-5.7,20c-0.1,10.2,6.4,19.1,10.1,28.5
		c3.9,9.5,4.8,20,6.2,29.9c2.4,16.2,6.8,32,12.5,47.5c0.5,1.6,1.3,3.3,2.5,4.5c1.1,1.1,2.5,1.5,4,2c23.8,9,45.4,24.8,70.3,28.8
		c18.2,2.8,36.8-0.8,54-7.3c17.4-6.6,33-16.2,48.8-25.6c4.8-2.8,9.7-6,13.3-10.5c2.5-3.2,4.1-7.3,5.3-11.3
		c6.7-19.2,12.7-38.4,18-58.2c1.6-6.2,3.3-12.7,3.3-19.2c0-6.4-1.4-12.3-2.9-18.3c-3.4-14.1-6.9-28.3-13.9-41
		c-4.2-7.4-9.5-14.7-11.5-22.9c-1-3.8-1-8.2-2.5-11.9c-1.4-4.2-4.6-7.7-8.2-11c-8.5-7.9-19-14-30-18c-9.3-3.2-19-4.8-28.8-6.5
		c-3-0.6-6.1-1-9-1.5c-2.4-0.4-4.9-0.7-7.4-1.2c-24.2-4.2-50-7.9-72.5,1.5c-15.7,6.8-28.1,19.2-38.6,32.5
		C66.2,151.6,58.3,163.8,55.7,177.7z"/>
	<path class="st3" d="M50.4,144.4c-4.5,9.7-6.9,20.1-8.1,30.8c-1.2,12,4,27.7-3.7,38.2c-1.4,2.3-3.4,4-4.2,6.5
		c-1,3.6,0.8,6.8,2.3,10.1c6.1,13,9.3,27.4,9,42c-0.3,7.2-0.9,14.1,0,21.1c3.7,24,28.3,39.5,34.5,62.7c0.3,1.2,0.6,2.8,1.5,3.7
		c1.5,1.7,4.2,1.7,6.5,1.7c9,0.4,17.1,5.7,24.8,10.2c36.3,20.1,81.9,21.7,120.5,6.2c16.4-6.5,31.7-15.9,46.9-25.2
		c6.5-4.1,13.2-8.4,18-14.6c2.8-3.7,4.8-8,6.5-12.2c5.7-13.3,11.6-26.9,13.9-41.5c3.5-23.8-2.8-47.5-9.8-70.3
		c-11.6-38.9-26.5-79.6-57.9-105.3C240.5,99.7,228.2,93,214.9,89c-6.6-2-13.9-3.4-21.2-2.9c-10.5,0.8-20.3,5.9-30.8,5.6
		c-8.7-0.3-17-4.1-25.7-5.6c-12.2-1.9-25,1.2-36.5,6.8C78.3,103.4,60.3,122.3,50.4,144.4z"/>
	<path class="st4" d="M31.2,140.9c-6.6,19.4-0.6,40.6-7.4,59.8c-1.7,5.3-4.7,10.2-6.2,15.8c-2.5,8.9-1.7,18.3-0.8,27.3
		c2.7,27.2,6,54.7,16,80.2s28.4,48.7,54,58.8c7.7,3,15.6,4.7,23.5,7c13.5,4,26.5,10,40.3,12.5c21.5,3.7,43.8-1.6,65-7.3
		c11.3-3,23.2-6.5,30.5-15.5c5.3-6.5,7.6-15.1,11.3-22.5c5.1-10,12.5-18.8,17-29c10.9-25,0.8-54.5,8.1-80.7c2.8-10,7.8-18.9,9.8-29
		c1.3-6.7,1.1-13.2,0.8-20c-1.2-20.4-3.9-41.5-11.3-60.7c-4.1-11-9.8-21.2-16.6-30.5c-3.3-4.4-6.8-8.8-11-12.5
		c-4-3.6-8.5-6.5-13-9.3c-9-5.8-18.3-11.6-28.8-13.9c-17.5-3.6-35.2,3.2-53,2.9c-11-0.1-21.5-2.9-32.2-2.9c-18.4,0-35.9,8-50.6,19
		C60.9,102.2,38,121.7,31.2,140.9z"/>
	<path class="st4" d="M147,249c3.9,4.4,9.5,7.7,15.2,7.7c2.4,0,4.9-0.7,7.4-1.5c3.4-1.1,6.9-2.5,9.4-5.3c3.4-3.7,4.5-9.4,4.2-14.7
		c-0.3-7.5-2-14.8-6.5-20.8c-4.1-6.1-11.4-10.1-18.7-9.8c-2.2,0-4.2,0.4-6.2,0.9c-3,0.8-5.8,1.2-8.7,2c-0.5,0.3-1.2,0.3-1.7,0.8
		c-0.7,0.6-0.9,1.5-1.2,2.3C136.5,224.9,137.4,237.9,147,249z"/>
	<path class="st5" d="M146,225.8c0.1,3.4,6,11.9,10.2,10.2c6.3-2.6-0.2-14.2-6.2-6.8c-4.3,5.2,0.8,15.1,5,18.7
		c3.5,3,8.3,3.7,12.5,2.5s7.8-5.1,8.7-9.3c0.8-2.1,0.8-4.9,0.5-7.4c-0.3-6.8-1.6-14.6-7.3-18.3c-3.8-2.5-9.4-2.2-13.9-0.5
		C150.4,216.6,145.5,219.9,146,225.8z"/>
	<path class="st5" d="M114.4,212c-2.3,14.1-4.8,28.4-2,42.3c2.5,14.1,11.3,27.9,24.8,32.1c5.8,1.8,11.8,1.8,17.7,1.5
		c14.2-1.6,28.5-6.8,38.7-16.6c10.2-9.7,16.3-24.8,13.8-38.7c-1.8-10.1-7.6-19.1-13.3-27.6c-4.9-7.4-10.5-15.4-18.7-18.7
		c-5.2-2.3-11-2.3-16.7-2.3c-5.3,0-10.7,0-16,1.2C129.2,188.2,117,198.4,114.4,212z"/>
	<path class="st7" d="M166.5,142.2c-23.9-1.5-54.1,7.8-67.1,29.3c-15.1,25.4-15.9,61.1-5.7,88.4c8.2,21.8,24.3,41,45.1,50.6
		c5.9,2.8,11.9,4.8,18.4,4.8c6.4,0.3,12.3-1.8,18.3-3.3c14.1-3.7,28.3-6.3,41.8-11.9c13.3-5.6,26-14.6,32.5-27.6
		c5.1-9.9,6.1-21.2,5.6-32.2c-1.6-32.2-17.2-64.4-44-82.7C198.3,148.7,182.5,143.4,166.5,142.2z"/>
	<path class="st5" d="M12.5,179.8C10,204.4,24.3,224.4,30,248.1c6,24.3,11.1,48.7,16.7,73.2c3.8,16.3,7.9,33.6,19.2,45.9
		c7.4,8.5,18,13.9,28.2,18.7c10.7,5.2,21.7,9.7,32.7,13.9c19,7,38.7,13,59,11.8c17.9-1.2,35.4-7.9,50.9-17.2
		c6.5-4,12.7-8.2,18.7-12.7c16.9-13,32.3-29.1,40.4-48.9c5.9-14.3,7.6-30.2,14.6-44c2.3-4.6,5.6-9.4,6.8-14.7c1.3-4.8,0.8-10,0.5-15
		c-1-16.2-2.4-32.6-3.3-49.2c-1.1-17-2.5-35-13-48.3c-6.8-8.7-17.5-15.2-19.8-26.2c-0.7-3.8-0.3-8.1-1.5-11.9s-3.7-6.9-6.5-9.8
		c-37.1-40-95.7-59-149.4-48.5c-32,6.5-62.2,23.1-83.3,48C25.3,132.1,14.9,155.9,12.5,179.8z"/>
	<path class="st4" d="M22.7,155.2c3.9-22.8,21.1-46.3,35.3-63.8C67.7,79.5,78.7,68.7,89.4,58c1.8-2,3.7-3.9,6-4.8
		c3.6-1.6,7.6-1.1,11.3-0.8c14.2,1.1,28.8,0,42.7-2.9c12.6-2.6,24.8-7.1,37.5-7.4c11-0.1,22,2.7,32.7,5.6c16.3,4.3,32.5,8.8,48.8,13
		c5.7,1.7,11.7,3.2,17,6.5c6.9,4.2,11.8,11,16.3,17.5c8.5,11.9,16.7,24.2,24.8,36.7c6,9,11.7,18.3,15,28.8
		c4.1,12.5,4.1,25.7,3.6,38.7c-1.6,35-6.2,70-16.6,103.4c-10.2,32.6-25.7,63.5-45.7,91.1c-2.4,3.1-4.8,6.4-8.1,8.7
		c-2.5,1.7-5.3,3.1-8.2,4c-27.3,10.5-56.1,18.1-85.5,19c-29.5,1-59.2-4.8-84.9-19c-9-4.9-17.4-11-26.8-15c-6.7-3-13.8-4.7-20-8.7
		c-9.7-6.1-15.6-16.7-21.2-26.9c-5.7-10.7-11.4-21.5-15-33c-7.7-25.9-4-53.3,0-80.1C16.8,206.9,19.3,180.9,22.7,155.2z"/>
	<path class="st7" d="M19.4,138.6c-5.3,22.9-14.1,45.2-15.8,69.2c-1.4,18.4,1.3,37.1-2.3,55.4c-1.2,6.2-3.2,12.7-2,19.2
		c1.9,9.3,10.1,16.3,11.3,25.6c0.8,4.3-0.1,9.1,0.8,13.3c0.8,3.7,3,6.9,5.3,10.2C30.9,351.2,48,368.7,65,386.2
		c6.8,6.6,13.5,13.6,22,18.4c9.5,5.3,20.3,7.3,31,9.3c29.2,5.1,58.4,9.6,88,9.9c22.7,0.3,46.8-2.2,65.8-14.7
		c19.8-13,31.7-35,41-56.7c8.7-20.7,16-42.5,18-65c1.2-13.5,0.5-26.9-0.3-40.4c-1.5-28.8-3.2-57.9-12.2-85.5
		c-4.8-14.7-11.8-28.8-19.5-42.3c-8.7-15-18.8-29.7-33-39.8c-12.7-8.9-28-14.1-43.5-17c-20.3-4-41.1-5.1-61.5-4.8
		c-12.9,0-25.9,0.5-38.6,2.8c-24,4.3-47.2,14.2-66.7,28.8C39.2,101.4,24.5,118.2,19.4,138.6z"/>
	<path class="st4" d="M134.4,269.1c8.5,5.8,19.2,6.7,29.3,5c4-0.6,7.7-1.9,11-4.2c2.4-1.7,4.3-4,6-6.5c5.7-7.8,10.4-16.7,11.3-26.5
		c1.3-11.8-3.5-24.4-12.5-32.1c-8.9-7.8-22.1-10.7-33.4-7s-20.6,13.9-22.3,25.7C121.5,238.3,119.9,259.1,134.4,269.1z"/>
	<path class="st4" d="M2.4,179.8c-2.5,29.7-5.3,60.7-4.8,90.4c0.4,28.2,6.2,57.4,23.2,80.2c4.5,6,10.1,11.8,14.6,17.8
		c4.9,6.9,9.1,14.3,14.7,21.1c12.4,15.1,30.2,25.4,48.9,31.1s38.4,7.8,57.9,9.3c14.2,1.1,28.5,1.8,42.7,2.3
		c10.6,0.5,21.6,0.5,31.4-3.7c3.5-1.4,6.9-3.5,10.5-5c5-2.1,10.2-2.4,15.5-3.3c43.3-7.6,78.3-49.7,77.4-94c0-5.6-0.6-11,0.3-16.3
		c0.9-6,3.7-11.3,5.7-17c10.1-27.7,3.6-58.2-2.9-87c-5.9-26.3-11.8-52.3-17.8-78.5c-1-4.4-2-8.9-5-12.5s-7.5-5.3-11.5-7.3
		c-8.6-4.5-15.8-10.7-22.8-17.2c-9.8-9-19.5-17.8-29.3-26.5c-9.1-8.2-18.7-16.7-30.2-21.5c-15.1-6.5-32.3-5.7-48.9-4.8
		c-18.2,1.1-36.5,2.3-54,6.8c-32.5,8.3-62,27.2-82.8,53.7C16.8,121.1,5.5,149.9,2.4,179.8z"/>
	<path class="st5" d="M108.1,237.4c-2,15.5,4.5,30.1,11.8,43.1c2.1,3.9,4.5,7.9,8.1,10.7c3.2,2.5,7.3,3.9,11.3,4.8
		c15.9,3.4,33-0.3,47.2-8.4c14.3-8.1,25.7-20.3,34.7-34.1c4.5-6.8,8.6-14.6,8.1-22.8c-0.6-6.5-3.5-11.9-6.8-17.5
		c-10.2-17.5-23.3-35-42.3-42c-11-4.1-23.4-4.1-34.7-1.2c-13.4,3.5-26.1,11.8-32.1,24.3C107.2,207.8,110,223.5,108.1,237.4z"/>
	<path class="st2" d="M-10.1,223.3c-1.2,12.5-1.6,22.8,1.7,35.3c4,16.6,4.2,33.3,8.2,50c5.5,22.3,20.7,40.8,35.8,58.5
		c9.1,10.7,18.4,21.2,29.4,29.4c15.8,11.6,34.5,18.7,53.1,25.4c37.9,14.1,77.3,28,117.7,28c9.4,0,19-1.1,27.7-4.9
		c21.7-9.7,32.7-35.9,54.7-45.2c4.1-1.7,8.2-2.9,11.5-5.7c3.3-2.6,4.7-6.7,6.2-10.7c27.7-74.2,29.2-157.9,4-233.2
		c-2.7-7-5.3-14.3-10.1-20c-2.1-3-5.4-5.4-7.4-8.7c-2.2-3.4-3.4-7.7-4.2-11.9c-3.7-18.8-2.8-39.4-11.8-56.1
		c-9.3-17-27.3-27.6-45.1-35C246.2,12,230.4,6.7,214.1,3c-11.5-2.8-23.2-4.8-34.7-2.3c-7,1.5-13.5,4.8-20,7.7
		c-15.2,7.1-30.5,14.4-45.7,21.7C100.6,36.5,86.9,42.7,75,51.2c-27.7,19.2-47.2,48.2-61.9,78.7C-1.8,160.6-7.2,189.9-10.1,223.3z"/>
</g>
</svg>
