<?xml version="1.0" encoding="utf-8"?>
<!-- Generator: Adobe Illustrator 24.0.3, SVG Export Plug-In . SVG Version: 6.00 Build 0)  -->
<svg version="1.1" id="Layer_1" xmlns="http://www.w3.org/2000/svg" xmlns:xlink="http://www.w3.org/1999/xlink" x="0px" y="0px"
	 viewBox="0 0 144 252" style="enable-background:new 0 0 144 252;" xml:space="preserve">
<style type="text/css">
	.st0{fill:#FFD7AA;}
	.st1{fill:none;stroke:#000000;stroke-miterlimit:10;}
	.st2{fill:none;stroke:#231F20;stroke-miterlimit:10;}
	.st3{fill:none;stroke:#231F20;stroke-width:2;stroke-miterlimit:10;}
	.st4{fill:none;stroke:#231F20;stroke-width:0.25;stroke-miterlimit:10;}
	.st5{fill:none;stroke:#231F20;stroke-width:0.5;stroke-miterlimit:10;}
	.st6{fill:none;stroke:#231F00;stroke-width:0.25;stroke-miterlimit:10;}
	.st7{fill:none;stroke:#231F20;stroke-width:0.75;stroke-miterlimit:10;}
</style>
<rect x="-3.1" y="-2.2" class="st0" width="150.1" height="256.4"/>
<g>
	<path class="st1" d="M18.1,3.6C13,5.3,7.9,7,2.9,9.2c-28.7,12.7-47.6,41.6-55.8,72c-6.2-2.3-13.2,2.5-15.5,8.7s-1.2,13.1,0.5,19.4
		c3,11.5,7.6,22.5,9.7,34.2c3.7,20.2,0.3,42.4,10.3,60.3c4.6,8.3,11.8,14.8,18.8,21.2c5.3,4.9,10.7,9.7,16,14.6
		c4,3.6,8,7.3,12.6,10.2c4.2,2.7,8.8,4.8,13.5,6.6c40.6,15.1,86,4.9,127.2-8.2c7-2.2,14.2-4.7,19.7-9.5c7.2-6.3,10.7-15.8,16.7-23.2
		c4.5-5.5,10.4-9.8,13.7-16c5.9-10.8,2.7-24.2,3.4-36.5c0.5-9.4,3.4-18.4,4.9-27.7c3.9-23.7-1.5-48.9-14.8-68.9
		c-1.4-2.1-2.9-4.2-3.6-6.6c-1.4-4.8,0.4-10-0.7-14.9c-1.2-5.2-5.5-9-9.6-12.4c-8-6.7-16-13.3-24-20c-3.3-2.7-6.7-5.5-10.7-6.8
		c-5.7-1.8-11.9-0.5-17.9-0.4C99.5,5.4,84.2-5.4,67.2-9c-8-1.7-12.5,0.3-19.7,3C37.9-2.4,27.9,0.5,18.1,3.6z"/>
	<path class="st2" d="M31.1,158.7c5.6,11,23.6,13.4,36,12.6c9-0.6,17.4-5.2,24.9-10.5c7.7-5.6,14.8-12.6,18.7-21.5
		s3.7-19.7-2.1-27.4c-2.6-3.4-6-6-9.4-8.6c-5.8-4.2-11.5-8.6-17.3-12.8c-4.8-3.6-9.8-7.3-15.7-8.6c-9.8-2.3-20.3,2.6-26.6,10.5
		c-6.5,7.7-9.2,17.9-10,28.1c-0.8,8.7-5.5,12.6-3.7,21.1C26.6,144.9,30.3,155.5,31.1,158.7"/>
	<path class="st3" d="M39.5,159.1c2.6,1.6,5.6,2.3,8.7,2.7c3.9,0.6,7.7,1.3,11.8,1c7.9-0.6,14.8-5,21.5-9c4.5-2.9,9-5.6,12.8-9.5
		c3.7-3.9,6.3-8.9,6.3-14.2c0-6-3.4-11.5-6.6-16.5c-2.1-3.2-4.2-6.5-7.1-9c-3.6-3.1-7.9-5-12.3-6.6c-6.8-2.6-14.2-4.8-21.1-2.7
		c-8.3,2.4-13.3,10.8-16.3,18.9C33.2,124.8,27.4,151.2,39.5,159.1z"/>
	<path class="st4" d="M55.7,153.6c5.3,0.3,10.7-1.3,15.5-3.7c3.2-1.6,6.5-3.6,9-6c7.9-7.7,9.4-21.5,2.9-30.7s-19.7-12.8-29.7-7.9
		c-2.1,1-4.2,2.4-5.8,4c-2.1,2.3-3.4,5-4.4,7.9c-2.7,7.4-5.2,17.9-4.5,26C39.3,151.3,48.7,153.1,55.7,153.6z"/>
	<path class="st5" d="M71.8,138.4c3.6-5.3,4.4-12.1,2.7-18.2c-0.5-2.1-1.5-4.2-3.2-5.6c-1.3-1-2.7-1.5-4.4-1.8
		c-3.7-0.8-7.6-1.1-11,0.3c-7.9,3.6-12.4,19.5-10.2,27.4C49.4,152.8,67.1,145.7,71.8,138.4z"/>
	<path class="st6" d="M53.9,132.3c0.8,1.1,1.9,1.9,3.2,2.3c4.4,1.3,8.9-2.6,10-6.9c0.5-1.8,0.3-3.9-0.6-5.3
		c-1.9-2.7-6.5-2.3-8.9,0.2s-3.1,6-3.2,9.4"/>
	<path class="st5" d="M31,170.5c5.6,5,12.9,7.7,20.5,8.7c14.5,1.9,29.7-1.9,41.3-11c2.1-1.6,4-3.4,6-5c1.1-1,2.4-2.1,3.6-3.1
		c5.2-4.5,10.3-9.2,13.7-15.2c2.7-4.8,4-10.5,3.9-16c-0.2-5.6-1.9-11.1-3.9-16.5c-1-2.6-1.9-5.3-3.6-7.6
		c-3.9-5.6-10.2-9.2-16.3-12.6c-4.5-2.4-9-4.8-13.6-7.3C79,83,75.3,81,71.3,80.2c-8.6-1.6-17.1,2.7-24.5,7.4
		c-5.2,3.2-10.5,6.9-13.9,12.1c-1.8,2.7-3.1,5.8-4,9c-2.6,7.6-4,15.7-4.4,23.7C24.2,146.1,19.2,160,31,170.5z"/>
	<path class="st4" d="M27.7,181.5c5.6,4.8,12.9,7.6,20.2,8.9c2.1,0.3,4.2,0.6,6.5,0.8c6.9,0.5,13.9-0.2,20.7-1.9
		c16.1-4.2,30.2-14.4,40.5-27.4c11.6-14.7,18.7-33.6,17.1-52.3c-1-10.8-5.3-22.1-14.8-27.4c-5.5-3.1-11.8-3.6-17.8-5.6
		c-9-3.1-16.9-9.4-26.3-10.8c-4.2-0.6-8.6-0.2-12.8,0.5c-4.4,0.8-8.7,1.9-12.4,4.5c-2.9,1.9-5.2,4.7-7.4,7.3
		c-7.7,8.6-15.4,17.7-23,26.6c-2.1,2.4-4.2,5-5.3,8.1c-0.8,2.3-1,4.5-1.1,6.9C10.6,140.5,10.1,166.8,27.7,181.5z"/>
	<path class="st2" d="M42.1,200.9c4.8,1.3,9.8,2.3,14.8,2.1c9.8-0.2,19.2-4.2,28.2-8.2c5.3-2.4,11-5,14.8-9.4
		c1.9-2.1,3.4-4.7,5.6-6.5c1.6-1.3,3.7-2.1,5.5-3.2c8.7-5.5,11.5-16.5,14-26.5c3.2-12.3,7.3-24.5,12.3-36.3c2.4-5.8,5-11.8,4.7-18.1
		c-0.5-7.7-5.6-14.5-11.8-19c-6.1-4.5-13.6-7.3-20.7-10.3c-7.6-3.2-15.3-6.9-23.6-7.6c-4.5-0.3-8.9,0.3-13.4,1
		c-6.1,1-12.4,1.8-17.9,4.5c-4,1.9-7.6,4.8-11.5,6.9c-5,2.9-10.9,4.7-16.7,6.4c-1,0.3-2.1,0.6-2.7,1.5c-1.3,1.5-1,3.6-0.8,5.5
		c0.5,8.7-4.7,16.5-10,23.4c-2.9,3.7-6,7.4-7.3,11.9C4,124.2,5,129.8,5.9,135.2c1.5,8.2,3.4,16.5,4.2,24.9
		c0.5,5.3,0.3,10.5,1.9,15.8C15.9,190.1,27.9,198.3,42.1,200.9z"/>
	<path class="st4" d="M6.3,196.2c0.8,3.1,1.8,6,3.6,8.6c2.1,3.1,5.3,5.3,8.7,7.1c15.7,8.6,35.2,9.7,51.8,2.7
		c7.3-3.1,13.7-7.4,20.3-11.8c6-4,11.9-8.1,17.9-12.1c3.1-1.9,6.1-4,8.4-6.8c1.9-2.3,3.4-5,4.5-7.7c4-8.7,6.9-17.9,10-27.1
		s6-18.6,9-27.8c2.7-8.6,5.6-17.3,6.9-26.3c0.6-4.2,1-8.6,0.2-12.8c-0.6-3.1-1.8-6-3.1-8.9c-2.3-5.3-4.4-10.5-6.6-15.8
		c-0.3-0.8-0.8-1.8-1.5-2.4c-0.8-0.6-1.8-1-2.7-1.3c-5-1.8-9.4-5.3-14.2-7.7c-6.1-2.9-12.9-3.9-19.7-4.2C72,40.4,43.3,48.7,23,67.6
		c-4.4,4-8.7,9.5-7.9,15.5c0.3,1.9,1.1,3.9,1.5,5.8c0.8,5-1.6,10-4.5,14.4s-6.5,8.1-8.4,12.8c-2.3,5.6-2.1,11.9-1.9,18.1
		c0.3,10,0.6,19.9,0,29.9c-0.5,5.5,0.3,11.1,1.1,16.5C3.7,185.5,6.3,191.2,6.3,196.2z"/>
	<path class="st7" d="M7.1,187.1c6.8,8.6,14.8,16.6,24.9,21c14.5,6.1,31.2,3.7,46.8,1c1.6-0.3,3.2-0.5,4.8-0.8
		c1.9-0.3,3.9-0.6,5.8-1c6.3-1.1,12.6-2.1,18.6-4.2c7.1-2.6,13.9-6.5,19.4-11.6c2.3-2.1,4.4-4.4,5.3-7.1c1-2.4,1-5.2,1.6-7.7
		c1.3-5.3,4.7-10,7.4-14.8c4.5-8.2,6.8-17.4,9-26.5c1-3.9,1.9-7.7,1.9-11.8c0-4.2-1.1-8.4-2.1-12.4c-3.4-12.8-7.3-25.2-11.6-37.6
		c-0.8-2.6-1.8-5.2-3.4-7.3c-2.3-2.9-5.5-5-8.6-6.8c-10.2-6.1-20.3-12.3-31.5-16.5c-11.1-4.2-23.1-6.5-34.9-4.7
		c-16.1,2.6-30,12.8-45.4,18.6c-1,0.3-1.9,0.6-2.6,1.3c-0.8,0.8-1.3,1.9-1.6,2.9c-3.7,10-6.5,20.2-8.1,30.7
		c-0.9,6.4-1.5,13.2-4,19.3c-2.4,6.1-6.6,11.8-6.5,18.4c0.2,4.5,2.4,8.7,3.7,12.9c2.4,7.6-2.4,13.4-1,21.1
		C-3.4,172.5,1.7,180.4,7.1,187.1z"/>
	<path class="st3" d="M24,218.3c7.4,3.6,15.7,5.6,23.6,4.4c5.6-1,11-3.4,16.6-3.6c6.8-0.2,13.1,3.1,19.9,3.6
		c4.7,0.3,9.4-0.6,13.7-1.9c8.6-2.6,16.5-6.9,23.4-12.6c20.3-16.6,29.9-42.9,37.4-68c4.5-14.7,8.6-30,6.3-45.4
		c-1.5-9.4-5.3-18.2-9-26.8c-1.1-2.7-2.4-5.5-4.2-7.9c-3.1-4-7.4-6.8-11.6-9.4c-9.8-6-19.7-12.1-30.3-16.3c-24.9-10-54.4-9-77.8,4
		c-5,2.9-10.2,6.3-16,6.6c-1.5,0-3.2,0-4.2,1.1c-0.6,0.6-0.8,1.6-1,2.4c-4,15-19.9,25-22.3,40.5c-0.6,4.5-0.2,9,0,13.6
		c0.2,9.4-1.9,18.7-5.8,27.1c-1,2.1-2.1,4.2-1.5,6.5c0.5,1.6,1.8,2.7,2.7,4.2c5,6.8,1.6,16.9,2.4,24.7c0.8,6.9,2.3,13.6,5.2,19.9
		C-2.1,199.3,9.5,211.5,24,218.3z"/>
	<path class="st4" d="M8.4,219.9c9.5,7.1,20.8,12.3,32.7,12.3c6.9,0,13.7-1.8,20.8-1.9c11.5-0.2,22.9,4.2,34.2,1.9
		c6.8-1.5,12.8-5.2,18.6-9c2.9-1.8,5.8-3.7,8.4-6c2.7-2.4,5-5.2,7.1-8.1c4.4-6,8.1-12.6,10.7-19.7c4.8-12.4,6.5-26,7.3-39.2
		c0.2-4.4,0.3-8.6-0.5-12.9c-1.3-6.5-4.5-12.3-6.3-18.7c-4.7-16.9,1.8-36-5.2-52.1c-2.9-6.6-7.7-12.3-11-18.7
		c-2.4-4.8-3.9-10.3-7.3-14.5c-4.7-5.8-12.4-8.1-19.7-10c-13.7-3.7-28.1-7.1-42-4.7c-8.9,1.6-17.3,5.5-26,8.1
		C25.1,28.2,20,29.3,15,31.2c-16.5,6.5-28.4,21.5-34.9,38s-8.6,34.2-10.3,51.8c-0.6,5.8-1.1,11.9,0.5,17.6c1,3.6,2.9,6.8,4,10.2
		c4.4,12.4,0.5,26.1,4.8,38.6C-16.5,199.7-1.7,212.3,8.4,219.9z"/>
	<path class="st4" d="M49.5,142.3c0.2,0.5,0.3,1.1,0.8,1.5c0.3,0.3,0.8,0.3,1.1,0.5c1.9,0.5,3.7,0.8,5.6,1.3c1.3,0.3,2.6,0.6,4,0.6
		c4.7,0.2,9.4-2.4,12.1-6.3c2.9-3.9,4-8.6,4.2-13.4c0.2-3.4-0.5-7.1-2.7-9.5c-1.6-1.8-3.9-2.7-6.1-3.4c-1.6-0.5-3.2-1-4.8-1
		c-3.7,0-7.3,2.1-9.8,5C47.7,124.7,47.1,133.1,49.5,142.3z"/>
	<path class="st5" d="M59.4,139.5c2.9,1.1,6.5,1.3,9-0.3c3.7-2.4,4.5-7.4,4.7-11.8c0.2-1.6,0.2-3.4-0.3-4.8c-0.6-2.7-2.9-5.2-5.6-6
		s-5.8-0.3-8.1,1.6c-2.7,2.3-6,8.7-3.2,12.1c3.9,4.8,8.1-2.7,4-4.4c-2.7-1.1-6.5,4.4-6.6,6.6C52.9,136.3,56.1,138.4,59.4,139.5z"/>
	<path class="st5" d="M51.1,158.7c3.4,0.8,6.9,0.8,10.3,0.8c3.7,0,7.4,0,10.8-1.5c5.3-2.1,8.9-7.3,12.1-12.1
		c3.7-5.5,7.4-11.3,8.6-17.8c1.6-9-2.3-18.7-8.9-25s-15.8-9.7-25-10.7c-3.8-0.2-7.7-0.2-11.4,1c-8.7,2.7-14.4,11.6-16,20.7
		c-1.8,9-0.2,18.2,1.3,27.3C34.5,150.2,42.4,156.8,51.1,158.7z"/>
	<path class="st7" d="M95.5,176.5c17.3-11.8,27.4-32.6,28.4-53.4c0.3-7.1-0.3-14.4-3.6-20.8c-4.2-8.4-12.4-14.2-21-17.8
		c-8.7-3.6-17.9-5.3-27-7.7c-3.9-1-7.7-2.3-11.8-2.1c-4.2,0-8.1,1.3-11.9,3.1C35.2,84,24.8,96.4,19.5,110.5
		c-6.6,17.6-6.1,40.7,3.7,57.1c8.4,13.9,27.9,19.9,43.3,18.9C76.8,185.7,87,182.3,95.5,176.5z"/>
	<path class="st5" d="M-14.6,205.2c13.6,16.1,33.1,26.8,53.8,31c34.7,6.8,72.5-5.5,96.5-31.3c1.8-1.9,3.4-3.9,4.2-6.3
		c0.8-2.4,0.5-5.2,1-7.7c1.5-7.1,8.4-11.3,12.8-16.9c6.8-8.6,7.7-20.2,8.4-31.2c0.6-10.7,1.5-21.3,2.1-31.8c0.2-3.2,0.5-6.6-0.3-9.7
		c-0.8-3.4-2.9-6.5-4.4-9.5c-4.5-8.9-5.6-19.2-9.4-28.4c-5.2-12.8-15.2-23.2-26.1-31.6c-3.9-2.9-7.9-5.6-12.1-8.2
		c-10-6-21.3-10.3-32.9-11.1c-13.1-0.8-25.8,3.1-38.1,7.6c-7.1,2.7-14.2,5.6-21.1,9c-6.6,3.1-13.4,6.6-18.2,12.1
		c-7.4,7.9-10,19.1-12.5,29.6c-3.6,15.8-6.9,31.6-10.8,47.3c-3.7,15.3-12.9,28.2-11.3,44.1C-31.4,177.6-24.7,193-14.6,205.2z"/>
	<path class="st4" d="M-32.6,128.2c-2.6-17.3-5-35,0-51.7c2.3-7.4,6-14.4,9.7-21.3c3.6-6.6,7.4-13.4,13.7-17.4
		c4-2.6,8.6-3.7,12.9-5.6c6.1-2.6,11.5-6.5,17.3-9.7c16.6-9.2,35.8-12.9,54.8-12.3c19,0.6,37.6,5.5,55.2,12.3
		c1.9,0.6,3.7,1.5,5.3,2.6c2.1,1.5,3.7,3.6,5.2,5.6c12.9,17.8,22.9,37.8,29.5,58.8c6.8,21.6,9.8,44.2,10.8,66.8
		c0.3,8.4,0.3,16.9-2.3,25c-2.1,6.8-5.8,12.8-9.7,18.6c-5.2,8.1-10.5,16-16,23.7c-2.9,4.2-6.1,8.6-10.5,11.3
		c-3.4,2.1-7.3,3.1-11,4.2c-10.5,2.7-21,5.6-31.5,8.4c-6.9,1.9-14,3.7-21.1,3.6c-8.2-0.2-16.1-3.1-24.2-4.8
		c-9-1.9-18.4-2.6-27.6-1.9c-2.4,0.2-5,0.5-7.3-0.5c-1.5-0.6-2.7-1.8-3.9-3.1c-6.9-6.9-14-13.9-20.3-21.6
		c-9.2-11.3-20.3-26.5-22.8-41.2C-28.6,161.5-30.2,144.7-32.6,128.2z"/>
	<path class="st7" d="M-5.2,220.7c12.6,9.4,27.6,15.8,43.1,18.6c8.2,1.5,16.6,1.8,24.9,1.8c13.2,0.2,26.6-0.5,39.7-3.1
		c10-1.9,19.9-5.2,28.1-11c9.2-6.5,15.7-16,21.3-25.7c5-8.7,9.5-17.8,12.6-27.3c5.8-17.8,6.9-36.6,7.9-55.2c0.5-8.7,1-17.4,0.2-26.1
		c-1.3-14.5-6-28.6-11.6-42c-6-14-13.7-28.2-26.5-36.6C122.2,6,106.7,4.4,92,4.6C72.9,4.8,54,7.7,35.2,11c-6.9,1.3-13.9,2.6-20,6
		C9.7,20.1,5.4,24.6,1,28.9c-11,11.3-22,22.6-31.2,35.3c-1.5,2.1-2.9,4.2-3.4,6.6c-0.6,2.7,0,5.8-0.5,8.6c-0.8,6-6.1,10.5-7.3,16.5
		c-0.8,4.2,0.5,8.4,1.3,12.4c2.3,11.8,0.6,23.9,1.5,35.8c1.1,15.5,6.8,29.9,10.2,44.7C-25.2,202-15.7,212.8-5.2,220.7z"/>
	<path class="st4" d="M38.9,134c1.1,7.6,7.1,14.2,14.4,16.6s15.8,0.5,21.6-4.5c5.8-5,8.9-13.1,8.1-20.7c-0.6-6.3-3.6-12.1-7.3-17.1
		c-1.1-1.6-2.3-3.1-3.9-4.2c-2.1-1.5-4.5-2.3-7.1-2.7c-6.5-1.1-13.4-0.5-18.9,3.2C36.4,111,37.4,124.4,38.9,134z"/>
	<path class="st4" d="M-18.3,215.1c13.4,17.1,32.5,29.3,53.5,34.7c11.3,2.9,23.1,3.7,34.9,4.4c10.7,0.6,21.8,1.1,31.6-3.1
		c7.4-3.1,13.6-8.6,19.5-13.9c6.3-5.6,12.6-11.3,18.9-17.1c4.5-4.2,9.2-8.2,14.7-11.1c2.6-1.3,5.5-2.4,7.4-4.7s2.6-5.2,3.2-8.1
		c3.9-16.9,7.7-33.7,11.5-50.7c4.2-18.6,8.4-38.3,1.9-56.2c-1.3-3.7-3.1-7.1-3.7-11c-0.6-3.4-0.2-6.9-0.2-10.5
		c0.6-28.6-22-55.8-50-60.7c-3.4-0.6-6.8-0.8-10-2.1c-2.3-1-4.5-2.3-6.8-3.2c-6.3-2.7-13.4-2.7-20.3-2.4c-9.2,0.3-18.4,0.8-27.6,1.5
		c-12.6,1-25.3,2.3-37.4,6S-0.8,17.2-8.8,27c-3.6,4.4-6.3,9.2-9.5,13.6c-2.9,3.9-6.5,7.6-9.4,11.5c-11,14.7-14.7,33.6-15,51.8
		c-0.3,19.2,1.5,39.2,3.1,58.4C-37.5,181.5-30.2,200.1-18.3,215.1z"/>
	<path class="st5" d="M32.2,152.8c3.9,8.1,12.1,13.4,20.7,15.7c7.3,1.9,15.3,1.9,22.4-0.8c12.3-4.5,20.7-15.8,27.3-27.1
		c2.1-3.6,4-7.1,4.4-11.3c0.3-5.3-2.3-10.3-5.2-14.7c-5.8-8.9-13.2-16.8-22.4-22S59.2,85,48.9,87.2c-2.6,0.6-5.2,1.5-7.3,3.1
		c-2.3,1.8-3.9,4.4-5.2,6.9c-4.7,8.4-8.9,17.8-7.6,27.8C30,134,28.2,144.1,32.2,152.8z"/>
	<path class="st2" d="M-32.6,194.4c9.5,19.7,22.1,38.4,40,50.8c7.7,5.5,16.5,9.5,25,13.6c9.8,4.7,19.7,9.4,29.5,14
		c4.2,1.9,8.4,4,12.9,5c7.4,1.6,15,0.3,22.4-1.5c10.5-2.4,20.7-5.8,30.5-10c11.5-4.8,23.1-11.6,29.1-22.6
		c5.8-10.8,5.2-24.1,7.6-36.2c0.5-2.7,1.3-5.5,2.7-7.7c1.3-2.1,3.4-3.7,4.8-5.6c3.1-3.7,4.8-8.4,6.5-12.9
		c16.3-48.6,15.3-102.7-2.6-150.6c-1-2.6-1.9-5.2-4-6.9c-2.1-1.8-4.8-2.6-7.4-3.7c-14.2-6-21.3-22.9-35.3-29.2
		c-5.6-2.4-11.8-3.1-17.9-3.1c-26.1,0-51.5,9-76,18.1c-12,4.3-24.1,8.9-34.3,16.4c-7.1,5.3-13.1,12.1-19,19
		C-27.8,52.7-37.6,64.6-41.2,79c-2.6,10.8-2.7,21.6-5.3,32.3c-2.1,8.1-1.9,14.7-1.1,22.8C-45.7,155.7-42.2,174.6-32.6,194.4z"/>
</g>
</svg>
