<?xml version="1.0" encoding="utf-8"?>
<!-- Generator: Adobe Illustrator 24.0.3, SVG Export Plug-In . SVG Version: 6.00 Build 0)  -->
<svg version="1.1" id="Layer_1" xmlns="http://www.w3.org/2000/svg" xmlns:xlink="http://www.w3.org/1999/xlink" x="0px" y="0px"
	 viewBox="0 0 144 252" style="enable-background:new 0 0 144 252;" xml:space="preserve">
<style type="text/css">
	.st0{fill:#231F20;}
	.st1{fill:#FF0000;}
	.st2{fill:none;stroke:#000000;stroke-miterlimit:10;}
	.st3{fill:none;stroke:#FF0000;stroke-miterlimit:10;}
	.st4{stroke:#231F20;}
</style>
<g>
	<rect x="125.5" y="108.9" class="st0" width="10.5" height="12.2"/>
	<rect x="120.8" y="139.6" class="st1" width="8.9" height="12.2"/>
	<rect x="130.8" y="168.3" width="5.2" height="12.2"/>
	<line class="st2" x1="127.5" y1="91.5" x2="136.1" y2="91.5"/>
	<line class="st3" x1="123.4" y1="101.1" x2="136.1" y2="101.1"/>
	<line class="st2" x1="121.2" y1="133.5" x2="126.1" y2="133.5"/>
	<line class="st2" x1="131.8" y1="151.9" x2="136.1" y2="151.9"/>
	<line class="st2" x1="123.6" y1="159.3" x2="136.1" y2="159.3"/>
	<line class="st2" x1="121.2" y1="174.4" x2="125.8" y2="174.4"/>
	<line class="st2" x1="121.2" y1="187.3" x2="133.9" y2="187.3"/>
</g>
<g>
	<rect x="11.7" y="231.7" width="13" height="12.2"/>
	<rect x="9.4" y="209.3" width="7.3" height="12.2"/>
	<rect x="9.4" y="185.8" class="st1" width="13.2" height="12.2"/>
	<rect x="18" y="157.2" width="6.7" height="12.4"/>
	<line class="st2" x1="9.8" y1="148.3" x2="20.9" y2="148.3"/>
	<line class="st2" x1="9.8" y1="157" x2="13.1" y2="157"/>
	<line class="st2" x1="9.8" y1="163.4" x2="15.2" y2="163.4"/>
	<line class="st2" x1="16.5" y1="180.7" x2="24.7" y2="180.7"/>
	<line class="st2" x1="21.5" y1="209.1" x2="24.2" y2="209.1"/>
	<line class="st2" x1="18.3" y1="217.6" x2="23.8" y2="217.6"/>
	<line class="st3" x1="9.8" y1="250" x2="15.8" y2="250"/>
</g>
<polygon class="st4" points="0,175.8 72,119 144,175.8 144,179.1 72,122.5 0,179.1 "/>
</svg>
