<?xml version="1.0" encoding="utf-8"?>
<!-- Generator: Adobe Illustrator 24.0.3, SVG Export Plug-In . SVG Version: 6.00 Build 0)  -->
<svg version="1.1" id="Layer_1" xmlns="http://www.w3.org/2000/svg" xmlns:xlink="http://www.w3.org/1999/xlink" x="0px" y="0px"
	 viewBox="0 0 220 390" style="enable-background:new 0 0 220 390;" xml:space="preserve">
<style type="text/css">
	.st0{fill:#231F20;}
	.st1{clip-path:url(#SVGID_2_);fill:none;stroke:#231F20;}
	.st2{fill:none;stroke:#231F20;}
	.st3{fill:#D2232A;}
	.st4{fill:none;stroke:#D2232A;}
	.st5{clip-path:url(#SVGID_4_);fill:none;stroke:#231F20;}
	.st6{clip-path:url(#SVGID_6_);fill:none;stroke:#231F20;}
	.st7{clip-path:url(#SVGID_8_);fill:none;stroke:#231F20;}
	.st8{clip-path:url(#SVGID_10_);fill:none;stroke:#D2232A;}
	.st9{clip-path:url(#SVGID_12_);fill:none;stroke:#231F20;}
	.st10{clip-path:url(#SVGID_14_);fill:none;stroke:#231F20;}
	.st11{clip-path:url(#SVGID_16_);fill:none;stroke:#231F20;}
	.st12{clip-path:url(#SVGID_18_);fill:none;stroke:#231F20;}
	.st13{fill:#FF0000;}
	.st14{fill:none;stroke:#000000;stroke-miterlimit:10;}
	.st15{fill:none;stroke:#FF0000;stroke-miterlimit:10;}
	.st16{stroke:#231F20;}
	.st17{clip-path:url(#SVGID_20_);fill:none;stroke:#231F20;}
	.st18{clip-path:url(#SVGID_22_);fill:none;stroke:#231F20;}
	.st19{clip-path:url(#SVGID_24_);fill:none;stroke:#231F20;}
	.st20{clip-path:url(#SVGID_26_);fill:none;stroke:#231F20;}
	.st21{fill:#D2232A;stroke:#D2232A;}
	.st22{fill:none;stroke:#000000;}
</style>
<g>
	<rect x="-295.7" y="517.7" class="st0" width="17.6" height="64.7"/>
	<g>
		<g>
			<g>
				<g>
					<defs>
						<rect id="SVGID_1_" x="-313" y="517.7" width="384.5" height="84.9"/>
					</defs>
					<clipPath id="SVGID_2_">
						<use xlink:href="#SVGID_1_"  style="overflow:visible;"/>
					</clipPath>
					<rect x="-295.7" y="517.7" class="st1" width="17.6" height="64.7"/>
				</g>
			</g>
		</g>
	</g>
	<rect x="-261.4" y="559.8" class="st0" width="17.6" height="34"/>
	<rect x="-261.4" y="559.8" class="st2" width="17.6" height="34"/>
	<rect x="-225.5" y="529.2" class="st3" width="17.6" height="64.7"/>
	<rect x="-225.5" y="529.2" class="st4" width="17.6" height="64.7"/>
	<rect x="-48.5" y="517.7" class="st0" width="17.6" height="52.2"/>
	<g>
		<g>
			<g>
				<g>
					<defs>
						<rect id="SVGID_3_" x="-313" y="517.7" width="384.5" height="84.9"/>
					</defs>
					<clipPath id="SVGID_4_">
						<use xlink:href="#SVGID_3_"  style="overflow:visible;"/>
					</clipPath>
					<rect x="-48.5" y="517.7" class="st5" width="17.6" height="52.2"/>
				</g>
			</g>
		</g>
	</g>
	<rect x="-1.8" y="551.7" class="st3" width="17.6" height="42.1"/>
	<rect x="-1.8" y="551.7" class="st4" width="17.6" height="42.1"/>
	<rect x="42.1" y="517.7" class="st0" width="17.6" height="24.9"/>
	<g>
		<g>
			<g>
				<g>
					<defs>
						<rect id="SVGID_5_" x="-313" y="517.7" width="384.5" height="84.9"/>
					</defs>
					<clipPath id="SVGID_6_">
						<use xlink:href="#SVGID_5_"  style="overflow:visible;"/>
					</clipPath>
					<rect x="42.1" y="517.7" class="st6" width="17.6" height="24.9"/>
				</g>
			</g>
		</g>
	</g>
	<rect x="-182.1" y="517.7" class="st0" width="17.9" height="32"/>
	<g>
		<g>
			<g>
				<g>
					<defs>
						<rect id="SVGID_7_" x="-313" y="517.7" width="384.5" height="84.9"/>
					</defs>
					<clipPath id="SVGID_8_">
						<use xlink:href="#SVGID_7_"  style="overflow:visible;"/>
					</clipPath>
					<rect x="-182.1" y="517.7" class="st7" width="17.9" height="32"/>
				</g>
			</g>
		</g>
		<g>
			<g>
				<g>
					<defs>
						<rect id="SVGID_9_" x="-313" y="517.7" width="384.5" height="84.9"/>
					</defs>
					<clipPath id="SVGID_10_">
						<use xlink:href="#SVGID_9_"  style="overflow:visible;"/>
					</clipPath>
					<line class="st8" x1="-61.1" y1="517.4" x2="-61.1" y2="582.8"/>
				</g>
			</g>
		</g>
	</g>
	<line class="st2" x1="-150.1" y1="536.6" x2="-150.1" y2="594.2"/>
	<g>
		<g>
			<g>
				<g>
					<defs>
						<rect id="SVGID_11_" x="-313" y="517.7" width="384.5" height="84.9"/>
					</defs>
					<clipPath id="SVGID_12_">
						<use xlink:href="#SVGID_11_"  style="overflow:visible;"/>
					</clipPath>
					<line class="st9" x1="-199.7" y1="517.4" x2="-199.7" y2="559.8"/>
				</g>
			</g>
		</g>
		<g>
			<g>
				<g>
					<defs>
						<rect id="SVGID_13_" x="-313" y="517.7" width="384.5" height="84.9"/>
					</defs>
					<clipPath id="SVGID_14_">
						<use xlink:href="#SVGID_13_"  style="overflow:visible;"/>
					</clipPath>
					<line class="st10" x1="-75.8" y1="517.4" x2="-75.8" y2="561.5"/>
				</g>
			</g>
		</g>
	</g>
	<line class="st2" x1="-11.6" y1="594.2" x2="-11.6" y2="568.9"/>
	<g>
		<g>
			<g>
				<g>
					<defs>
						<rect id="SVGID_15_" x="-313" y="517.7" width="384.5" height="84.9"/>
					</defs>
					<clipPath id="SVGID_16_">
						<use xlink:href="#SVGID_15_"  style="overflow:visible;"/>
					</clipPath>
					<line class="st11" x1="27.8" y1="517.4" x2="27.8" y2="581.7"/>
				</g>
			</g>
		</g>
		<g>
			<g>
				<g>
					<defs>
						<rect id="SVGID_17_" x="-313" y="517.7" width="384.5" height="84.9"/>
					</defs>
					<clipPath id="SVGID_18_">
						<use xlink:href="#SVGID_17_"  style="overflow:visible;"/>
					</clipPath>
					<line class="st12" x1="16.6" y1="517.4" x2="16.6" y2="539.6"/>
				</g>
			</g>
		</g>
	</g>
	<line class="st2" x1="50.9" y1="570.3" x2="50.9" y2="594.2"/>
	<line class="st2" x1="-173.2" y1="566.6" x2="-173.2" y2="594.2"/>
	<line class="st2" x1="-163.5" y1="577" x2="-163.5" y2="594.2"/>
	<line class="st4" x1="-305.5" y1="563.2" x2="-305.5" y2="594.2"/>
	<line class="st2" x1="-256" y1="522.4" x2="-256" y2="550.1"/>
	<line class="st2" x1="-243" y1="520.1" x2="-243" y2="533.9"/>
</g>
<g>
	<rect x="-48.3" y="123.2" class="st0" width="16.1" height="18.6"/>
	<rect x="-55.4" y="170" class="st13" width="13.6" height="18.6"/>
	<rect x="-40.1" y="213.9" width="8" height="18.6"/>
	<line class="st14" x1="-45.2" y1="96.5" x2="-32.1" y2="96.5"/>
	<line class="st15" x1="-51.5" y1="111.2" x2="-32.1" y2="111.2"/>
	<line class="st14" x1="-54.9" y1="160.7" x2="-47.4" y2="160.7"/>
	<line class="st14" x1="-38.7" y1="188.9" x2="-32.1" y2="188.9"/>
	<line class="st14" x1="-51.1" y1="200.1" x2="-32.1" y2="200.1"/>
	<line class="st14" x1="-54.9" y1="223.2" x2="-47.8" y2="223.2"/>
	<line class="st14" x1="-54.9" y1="242.9" x2="-35.4" y2="242.9"/>
</g>
<g>
	<rect x="-222.2" y="310.8" width="19.8" height="18.6"/>
	<rect x="-225.6" y="276.5" width="11.1" height="18.6"/>
	<rect x="-225.6" y="240.7" class="st13" width="20.2" height="18.6"/>
	<rect x="-212.5" y="196.9" width="10.2" height="18.9"/>
	<line class="st14" x1="-225.1" y1="183.3" x2="-208" y2="183.3"/>
	<line class="st14" x1="-225.1" y1="196.7" x2="-220" y2="196.7"/>
	<line class="st14" x1="-225.1" y1="206.4" x2="-216.8" y2="206.4"/>
	<line class="st14" x1="-214.8" y1="232.9" x2="-202.3" y2="232.9"/>
	<line class="st14" x1="-207.1" y1="276.3" x2="-203.1" y2="276.3"/>
	<line class="st14" x1="-212" y1="289.2" x2="-203.7" y2="289.2"/>
	<line class="st15" x1="-225.1" y1="338.7" x2="-215.9" y2="338.7"/>
</g>
<polygon class="st16" points="-240,225.3 -130,138.5 -20,225.3 -20,230.4 -130,143.9 -240,230.4 "/>
<rect x="100" y="313.3" class="st0" width="17.6" height="52.2"/>
<g>
	<g>
		<g>
			<g>
				<defs>
					<rect id="SVGID_19_" x="-164.5" y="313.3" width="384.5" height="84.9"/>
				</defs>
				<clipPath id="SVGID_20_">
					<use xlink:href="#SVGID_19_"  style="overflow:visible;"/>
				</clipPath>
				<rect x="100" y="313.3" class="st17" width="17.6" height="52.2"/>
			</g>
		</g>
	</g>
</g>
<rect x="146.7" y="347.4" class="st3" width="17.6" height="42.1"/>
<rect x="146.7" y="347.4" class="st4" width="17.6" height="42.1"/>
<rect x="190.6" y="313.3" class="st0" width="17.6" height="24.9"/>
<g>
	<g>
		<g>
			<g>
				<defs>
					<rect id="SVGID_21_" x="-164.5" y="313.3" width="384.5" height="84.9"/>
				</defs>
				<clipPath id="SVGID_22_">
					<use xlink:href="#SVGID_21_"  style="overflow:visible;"/>
				</clipPath>
				<rect x="190.6" y="313.3" class="st18" width="17.6" height="24.9"/>
			</g>
		</g>
	</g>
</g>
<line class="st2" x1="136.9" y1="389.8" x2="136.9" y2="364.6"/>
<g>
	<g>
		<g>
			<g>
				<defs>
					<rect id="SVGID_23_" x="-164.5" y="313.3" width="384.5" height="84.9"/>
				</defs>
				<clipPath id="SVGID_24_">
					<use xlink:href="#SVGID_23_"  style="overflow:visible;"/>
				</clipPath>
				<line class="st19" x1="176.3" y1="313" x2="176.3" y2="377.4"/>
			</g>
		</g>
	</g>
	<g>
		<g>
			<g>
				<defs>
					<rect id="SVGID_25_" x="-164.5" y="313.3" width="384.5" height="84.9"/>
				</defs>
				<clipPath id="SVGID_26_">
					<use xlink:href="#SVGID_25_"  style="overflow:visible;"/>
				</clipPath>
				<line class="st20" x1="165.1" y1="313" x2="165.1" y2="335.2"/>
			</g>
		</g>
	</g>
</g>
<line class="st2" x1="199.4" y1="365.9" x2="199.4" y2="389.8"/>
<polygon class="st16" points="-366,19.6 -256,106.4 -146,19.6 -146,14.5 -256,101 -366,14.5 "/>
<rect x="13.5" y="7" class="st21" width="8.8" height="382.5"/>
<line class="st22" x1="83" y1="325.8" x2="83" y2="389.5"/>
</svg>
